<svg width="207" height="59" viewBox="0 0 207 59" fill="none" xmlns="http://www.w3.org/2000/svg">
<path d="M185.917 1.47102C191.109 1.47102 194.825 4.64534 194.825 11.0456C194.825 17.3899 191.109 20.5642 185.917 20.5642H179.194V1.47102H185.917ZM201.311 11.1015C201.311 4.30554 195.354 0.339798 186.683 0.339798H168.988V0.851646L172.82 1.70329V38.3542L168.988 39.4295V39.9972H183.027V39.4295L179.194 38.3542V21.6955H186.038L196.774 39.9929H205.918V39.4252L202.498 38.5176L194.713 25.4892C193.651 23.6783 192.472 22.0353 190.644 21.4116C197.126 20.6201 201.311 16.7662 201.311 11.1015ZM163.856 1.98287L167.512 0.907562V0.339798H153.765V0.907562L157.598 1.98287V38.3499L153.765 39.4252V39.9929H167.512V39.4252L163.856 38.3499V1.98287ZM129.167 6.5723L137.309 25.6612H120.556L129.167 6.5723ZM132.767 0.339798H130.818L113.536 38.3499L109.523 39.4252V39.9929H120.022V39.4252L114.831 38.3499L120.022 26.8483H137.838L142.793 38.3499L138.9 39.4252V39.9929H153.116V39.4252L149.339 38.3499L132.767 0.339798ZM86.7564 38.8617V1.98287L90.5888 0.907562V0.339798H76.5495V0.907562L80.382 1.98287V38.6337L76.5495 39.5413V39.9929H106.813V33.0808H105.871L103.097 38.8574H86.7564V38.8617ZM72.7171 33.9325C69.2976 37.2745 64.8115 38.5219 60.2693 38.5219C49.4732 38.5219 44.4021 31.1023 44.4021 19.9406C44.4021 7.70352 50.0066 1.30328 59.0306 1.30328C62.863 1.30328 70.4762 2.49472 72.1838 10.366H73.186V2.55064L72.5967 1.98287L70.1192 3.39798C66.932 1.07531 62.3339 0 57.8477 0C45.7527 0 37.7308 7.75944 37.7308 20.1685C37.7308 32.6292 45.6924 40.337 58.0843 40.337C64.3942 40.337 69.4697 38.4101 73.3623 34.6164L72.7171 33.9325ZM10.7191 38.8617V20.1083H25.111L26.3498 24.5257H27.2358V14.4995H26.3498L25.111 18.9169H10.7191V1.47102H28.5348L31.3091 7.30351H32.2511V0.339798H0.512207V0.851646L4.34461 1.70329V38.638L0.512207 39.5413V39.9929H32.8403V33.0808H31.8984L29.1241 38.8574H10.7191V38.8617Z" fill="#2B2A29"/>
<path d="M205.415 53.7697H204.232C203.324 53.7697 202.929 53.4127 202.929 52.5653C202.929 51.9588 203.44 51.4427 204.249 51.4427H205.415V53.7697ZM206.284 56.9139V51.1846C206.284 50.9351 206.146 50.7416 205.819 50.7416H204.21C203.105 50.7416 202.06 51.4384 202.06 52.5051C202.06 53.8299 202.929 54.3331 203.974 54.3632L204.348 54.3718L202.107 56.6601C201.987 56.7805 201.939 56.8795 201.939 57.0257C201.939 57.202 202.116 57.3397 202.335 57.3397C202.511 57.3397 202.632 57.258 202.731 57.1547L205.415 54.4148V56.9053C205.415 57.1719 205.582 57.3354 205.849 57.3354C206.116 57.3354 206.284 57.1805 206.284 56.9139ZM195.698 55.1676H192.976L194.326 51.6276H194.348L195.698 55.1676ZM192.709 55.8644H195.965L196.421 57.0429C196.49 57.2193 196.61 57.3483 196.847 57.3483C197.075 57.3483 197.26 57.2193 197.26 57.0085C197.26 56.8967 197.169 56.6859 197.139 56.6042L194.958 51.1846C194.838 50.9007 194.67 50.69 194.335 50.69C193.999 50.69 193.831 50.9007 193.711 51.1846L191.53 56.5999C191.5 56.6816 191.41 56.8924 191.41 57.0042C191.41 57.215 191.599 57.344 191.823 57.344C192.059 57.344 192.18 57.215 192.249 57.0386L192.709 55.8644ZM182.73 54.174L186.008 57.1719C186.184 57.3268 186.304 57.3483 186.433 57.3483C186.67 57.3483 186.859 57.1848 186.859 56.9913C186.859 56.8709 186.82 56.7805 186.683 56.6601L183.534 53.8299L186.416 51.4126C186.515 51.3309 186.592 51.2577 186.592 51.047C186.592 50.8362 186.433 50.6986 186.218 50.6986C186.042 50.6986 185.904 50.819 185.745 50.9566L182.734 53.5202V51.1287C182.734 50.862 182.567 50.6986 182.3 50.6986C182.033 50.6986 181.865 50.862 181.865 51.1287V56.9182C181.865 57.1848 182.033 57.3483 182.3 57.3483C182.567 57.3483 182.734 57.1848 182.734 56.9182V54.174H182.73ZM172.304 54.0148C172.304 52.7632 172.945 51.3868 174.506 51.3868C175.59 51.3868 175.788 52.032 176.184 52.032C176.399 52.032 176.54 51.8556 176.54 51.6448C176.54 51.3137 175.749 50.69 174.506 50.69C172.424 50.69 171.379 52.3158 171.379 54.0191C171.379 55.7181 172.424 57.3483 174.459 57.3483C175.693 57.3483 176.687 56.8537 176.687 56.4364C176.687 56.2085 176.549 56.0579 176.343 56.0579C175.977 56.0579 175.512 56.6472 174.459 56.6472C172.962 56.6472 172.304 55.2665 172.304 54.0148ZM163.022 51.4427H164.265C165.349 51.4427 165.744 52.161 165.744 52.8019C165.744 53.546 165.164 54.1439 164.303 54.1439H163.022V51.4427ZM163.022 54.845H164.364C165.645 54.845 166.613 53.946 166.613 52.8062C166.613 51.6664 165.744 50.7459 164.334 50.7459H162.617C162.29 50.7459 162.153 50.9394 162.153 51.1889V56.9182C162.153 57.1848 162.321 57.3483 162.587 57.3483C162.854 57.3483 163.022 57.1848 163.022 56.9182V54.845ZM154.273 54.3933H156.178C156.424 54.3933 156.604 54.2729 156.604 54.0148C156.604 53.7568 156.428 53.6363 156.178 53.6363H154.273V51.4943H156.363C156.609 51.4943 156.789 51.3739 156.789 51.1158C156.789 50.8577 156.613 50.7373 156.363 50.7373H153.869C153.542 50.7373 153.404 50.9308 153.404 51.1803V56.845C153.404 57.0945 153.542 57.2881 153.869 57.2881H156.363C156.609 57.2881 156.789 57.1676 156.789 56.9096C156.789 56.6515 156.613 56.5311 156.363 56.5311H154.273V54.3933ZM145.838 56.9139C145.838 57.1805 146.006 57.344 146.273 57.344C146.539 57.344 146.707 57.1805 146.707 56.9139V51.4986H148.019C148.264 51.4986 148.445 51.3782 148.445 51.1201C148.445 50.862 148.268 50.7416 148.019 50.7416H144.526C144.281 50.7416 144.101 50.862 144.101 51.1201C144.101 51.3782 144.277 51.4986 144.526 51.4986H145.838V56.9139ZM139.141 56.9139V51.1674C139.141 50.862 138.982 50.69 138.745 50.69C138.487 50.69 138.371 50.7932 138.135 51.1115L134.59 55.8644H134.569V51.1201C134.569 50.8534 134.401 50.69 134.135 50.69C133.868 50.69 133.7 50.8534 133.7 51.1201V56.8666C133.7 57.1504 133.846 57.344 134.096 57.344C134.354 57.344 134.47 57.2408 134.707 56.9225L138.251 52.1696H138.272V56.9139C138.272 57.1805 138.44 57.344 138.707 57.344C138.973 57.344 139.141 57.1805 139.141 56.9139ZM126.831 56.5913H123.76C124.47 55.3052 124.629 53.7396 124.629 51.8771V51.447H126.831V56.5913ZM128.616 58.5139V56.9698C128.616 56.7203 128.44 56.5913 128.19 56.5913H127.696V51.2319C127.696 50.9093 127.528 50.7459 127.261 50.7459H124.151C123.885 50.7459 123.717 50.9093 123.717 51.2319V51.8771C123.717 53.7439 123.588 55.2407 122.779 56.5913H122.375C122.13 56.5913 121.949 56.7203 121.949 56.9698V58.5139C121.949 58.8365 122.117 59 122.384 59C122.65 59 122.818 58.8365 122.818 58.5139V57.2924H127.743V58.5139C127.743 58.8365 127.911 59 128.177 59C128.448 59 128.616 58.8322 128.616 58.5139ZM112.349 54.3589H116.048V56.858C116.048 57.1805 116.216 57.344 116.482 57.344C116.749 57.344 116.917 57.1805 116.917 56.858V51.176C116.917 50.8534 116.749 50.69 116.482 50.69C116.216 50.69 116.048 50.8534 116.048 51.176V53.6578H112.349V51.176C112.349 50.8534 112.181 50.69 111.914 50.69C111.648 50.69 111.48 50.8534 111.48 51.176V56.858C111.48 57.1805 111.648 57.344 111.914 57.344C112.181 57.344 112.349 57.1805 112.349 56.858V54.3589ZM100.077 54.0148C100.077 55.7138 101.153 57.344 103.157 57.344C105.161 57.344 106.237 55.7181 106.237 54.0148C106.237 52.3158 105.161 50.6857 103.157 50.6857C101.153 50.69 100.077 52.3158 100.077 54.0148ZM101.006 54.0148C101.006 52.7632 101.578 51.3868 103.157 51.3868C104.736 51.3868 105.308 52.7675 105.308 54.0148C105.308 55.2665 104.736 56.6429 103.157 56.6429C101.578 56.6472 101.006 55.2665 101.006 54.0148ZM91.1824 54.174L94.4599 57.1719C94.6363 57.3268 94.7567 57.3483 94.8857 57.3483C95.1223 57.3483 95.3116 57.1848 95.3116 56.9913C95.3116 56.8709 95.2729 56.7805 95.1352 56.6601L91.9867 53.8299L94.8685 51.4126C94.9675 51.3309 95.0449 51.2577 95.0449 51.047C95.0449 50.8362 94.8857 50.6986 94.6707 50.6986C94.4943 50.6986 94.3567 50.819 94.1975 50.9566L91.1867 53.5202V51.1287C91.1867 50.862 91.0189 50.6986 90.7522 50.6986C90.4856 50.6986 90.3178 50.862 90.3178 51.1287V56.9182C90.3178 57.1848 90.4856 57.3483 90.7522 57.3483C91.0189 57.3483 91.1867 57.1848 91.1867 56.9182V54.174H91.1824ZM64.205 53.7697H63.0221C62.1146 53.7697 61.7189 53.4127 61.7189 52.5653C61.7189 51.9588 62.2307 51.4427 63.0393 51.4427H64.205V53.7697ZM65.0738 56.9139V51.1846C65.0738 50.9351 64.9362 50.7416 64.6093 50.7416H63.0006C61.8952 50.7416 60.85 51.4384 60.85 52.5051C60.85 53.8299 61.7189 54.3331 62.7641 54.3632L63.1383 54.3718L60.8973 56.6601C60.7769 56.7805 60.7296 56.8795 60.7296 57.0257C60.7296 57.202 60.9059 57.3397 61.1253 57.3397C61.3016 57.3397 61.4221 57.258 61.521 57.1547L64.205 54.4148V56.9053C64.205 57.1719 64.3727 57.3354 64.6394 57.3354C64.9061 57.344 65.0738 57.1805 65.0738 56.9139ZM51.0088 54.3589H54.7078V56.858C54.7078 57.1805 54.8756 57.344 55.1423 57.344C55.4089 57.344 55.5767 57.1805 55.5767 56.858V51.176C55.5767 50.8534 55.4089 50.69 55.1423 50.69C54.8756 50.69 54.7078 50.8534 54.7078 51.176V53.6578H51.0088V51.176C51.0088 50.8534 50.841 50.69 50.5744 50.69C50.3077 50.69 50.1399 50.8534 50.1399 51.176V56.858C50.1399 57.1805 50.3077 57.344 50.5744 57.344C50.841 57.344 51.0088 57.1805 51.0088 56.858V54.3589ZM41.5159 51.4427H42.759C43.8429 51.4427 44.2386 52.161 44.2386 52.8019C44.2386 53.546 43.658 54.1439 42.7977 54.1439H41.5159V51.4427ZM41.5159 54.845H42.8579C44.1397 54.845 45.1075 53.946 45.1075 52.8062C45.1075 51.6664 44.2386 50.7459 42.8278 50.7459H41.1116C40.7847 50.7459 40.6471 50.9394 40.6471 51.1889V56.9182C40.6471 57.1848 40.8148 57.3483 41.0815 57.3483C41.3482 57.3483 41.5159 57.1848 41.5159 56.9182V54.845ZM34.0533 55.1676H31.3306L32.6812 51.6276H32.7027L34.0533 55.1676ZM31.0639 55.8644H34.32L34.7759 57.0429C34.8447 57.2193 34.9651 57.3483 35.2017 57.3483C35.4297 57.3483 35.6146 57.2193 35.6146 57.0085C35.6146 56.8967 35.5243 56.6859 35.4942 56.6042L33.3135 51.1846C33.193 50.9007 33.0253 50.69 32.6898 50.69C32.3543 50.69 32.1865 50.9007 32.0661 51.1846L29.8854 56.5999C29.8553 56.6816 29.7649 56.8924 29.7649 57.0042C29.7649 57.215 29.9542 57.344 30.1779 57.344C30.4144 57.344 30.5349 57.215 30.6037 57.0386L31.0639 55.8644ZM21.0807 54.174L24.3583 57.1719C24.5346 57.3268 24.6551 57.3483 24.7841 57.3483C25.0207 57.3483 25.2099 57.1848 25.2099 56.9913C25.2099 56.8709 25.1712 56.7805 25.0336 56.6601L21.8851 53.8299L24.7669 51.4126C24.8658 51.3309 24.9433 51.2577 24.9433 51.047C24.9433 50.8362 24.7841 50.6986 24.569 50.6986C24.3927 50.6986 24.2551 50.819 24.0959 50.9566L21.085 53.5202V51.1287C21.085 50.862 20.9173 50.6986 20.6506 50.6986C20.3839 50.6986 20.2162 50.862 20.2162 51.1287V56.9182C20.2162 57.1848 20.3839 57.3483 20.6506 57.3483C20.9173 57.3483 21.085 57.1848 21.085 56.9182V54.174H21.0807ZM12.332 54.3933H14.2375C14.4826 54.3933 14.6633 54.2729 14.6633 54.0148C14.6633 53.7568 14.4869 53.6363 14.2375 53.6363H12.332V51.4943H14.4224C14.6676 51.4943 14.8482 51.3739 14.8482 51.1158C14.8482 50.8577 14.6719 50.7373 14.4224 50.7373H11.9277C11.6008 50.7373 11.4632 50.9308 11.4632 51.1803V56.845C11.4632 57.0945 11.6008 57.2881 11.9277 57.2881H14.4224C14.6676 57.2881 14.8482 57.1676 14.8482 56.9096C14.8482 56.6515 14.6719 56.5311 14.4224 56.5311H12.332V54.3933ZM1.38106 51.4427H5.08012V56.858C5.08012 57.1805 5.24787 57.344 5.51455 57.344C5.78123 57.344 5.94898 57.1805 5.94898 56.858V51.2319C5.94898 50.9093 5.78123 50.7459 5.51455 50.7459H0.946632C0.679955 50.7459 0.512207 50.9093 0.512207 51.2319V56.858C0.512207 57.1805 0.679955 57.344 0.946632 57.344C1.21331 57.344 1.38106 57.1805 1.38106 56.858V51.4427Z" fill="#2B2A29"/>
</svg>
