<svg width="168" height="48" viewBox="0 0 168 48" fill="none" xmlns="http://www.w3.org/2000/svg">
<path d="M8.30048 31.6167V16.363H20.0093L21.0172 19.9569H21.738V11.7998H21.0172L20.0093 15.3937H8.30048V1.20029H22.7948L25.0519 5.94542H25.8183V0.276452H0V0.692877L3.11793 1.38575V31.4348L0 32.1731V32.5406H26.3012V26.9171H25.5348L23.2777 31.6167H8.30048ZM58.7402 27.6065C55.9583 30.3255 52.3084 31.3403 48.6131 31.3403C39.8297 31.3403 35.704 25.3039 35.704 16.223C35.704 6.26736 40.2636 1.06031 47.6053 1.06031C50.7232 1.06031 56.9171 2.02963 58.3063 8.43346H59.1217V2.07513L58.6423 1.61321L56.6266 2.7645C54.0336 0.874849 50.2928 0 46.643 0C36.8028 0 30.2765 6.31285 30.2765 16.4085C30.2765 26.5462 36.7538 32.817 46.8354 32.817C51.969 32.817 56.0982 31.2493 59.2652 28.1629L58.7402 27.6065ZM70.1622 31.6167V1.61321L73.2801 0.738371V0.276452H61.8582V0.738371L64.9761 1.61321V31.4313L61.8582 32.1696V32.5371H86.4797V26.9136H85.7133L83.4562 31.6132H70.1622V31.6167ZM107.595 0.276452H106.01L91.9492 31.2003L88.6843 32.0751V32.5371H97.2262V32.0751L93.0025 31.2003L97.2262 21.8465H111.721L115.752 31.2003L112.585 32.0751V32.5371H124.15V32.0751L121.078 31.2003L107.595 0.276452ZM104.669 5.34702L111.294 20.8772H97.6636L104.669 5.34702ZM132.888 1.61321L135.863 0.738371V0.276452H124.679V0.738371L127.797 1.61321V31.2003L124.679 32.0751V32.5371H135.863V32.0751L132.888 31.2003V1.61321ZM163.364 9.03535C163.364 3.50636 158.518 0.279955 151.463 0.279955H137.066V0.69638L140.184 1.38925V31.2073L137.066 32.0821V32.5441H148.488V32.0821L145.37 31.2073V17.6578H150.938L159.672 32.5441H167.112V32.0821L164.33 31.3438L157.996 20.7442C157.132 19.271 156.173 17.9342 154.686 17.4268C159.956 16.7759 163.364 13.644 163.364 9.03535ZM150.836 1.20029C155.06 1.20029 158.084 3.78281 158.084 8.98986C158.084 14.1514 155.06 16.7339 150.836 16.7339H145.367V1.20378H150.836V1.20029Z" fill="#EECC61"/>
<path d="M0.888507 41.8516H3.89796V46.2572C3.89796 46.5197 4.03443 46.6527 4.25139 46.6527C4.46835 46.6527 4.60483 46.5197 4.60483 46.2572V41.6802C4.60483 41.4177 4.46835 41.2848 4.25139 41.2848H0.535074C0.318114 41.2848 0.181641 41.4177 0.181641 41.6802V46.2572C0.181641 46.5197 0.318114 46.6527 0.535074 46.6527C0.752034 46.6527 0.888507 46.5197 0.888507 46.2572V41.8516ZM9.79788 44.2556H11.3481C11.5476 44.2556 11.6945 44.1577 11.6945 43.9477C11.6945 43.7378 11.5511 43.6398 11.3481 43.6398H9.79788V41.8971H11.4986C11.698 41.8971 11.845 41.7991 11.845 41.5892C11.845 41.3792 11.7015 41.2812 11.4986 41.2812H9.46894C9.20299 41.2812 9.09101 41.4387 9.09101 41.6417V46.2502C9.09101 46.4532 9.20299 46.6107 9.46894 46.6107H11.4986C11.698 46.6107 11.845 46.5127 11.845 46.3027C11.845 46.0928 11.7015 45.9948 11.4986 45.9948H9.79788V44.2556ZM16.9156 44.0737L19.5821 46.5127C19.7256 46.6387 19.8235 46.6562 19.9285 46.6562C20.121 46.6562 20.275 46.5232 20.275 46.3657C20.275 46.2677 20.2435 46.1943 20.1315 46.0963L17.57 43.7937L19.9145 41.8271C19.995 41.7606 20.058 41.7012 20.058 41.5297C20.058 41.3582 19.9285 41.2463 19.7536 41.2463C19.6101 41.2463 19.4981 41.3442 19.3686 41.4562L16.9191 43.5418V41.5962C16.9191 41.3792 16.7826 41.2463 16.5656 41.2463C16.3487 41.2463 16.2122 41.3792 16.2122 41.5962V46.3062C16.2122 46.5232 16.3487 46.6562 16.5656 46.6562C16.7826 46.6562 16.9191 46.5232 16.9191 46.3062V44.0737H16.9156ZM25.0376 45.4489H27.6866L28.0575 46.4077C28.1135 46.5512 28.2115 46.6562 28.404 46.6562C28.5894 46.6562 28.7399 46.5512 28.7399 46.3797C28.7399 46.2887 28.6664 46.1173 28.6419 46.0508L26.8678 41.6452C26.7698 41.4142 26.6333 41.2428 26.3603 41.2428C26.0874 41.2428 25.9509 41.4142 25.8529 41.6452L24.0788 46.0508C24.0543 46.1173 23.9808 46.2887 23.9808 46.3797C23.9808 46.5512 24.1348 46.6562 24.3167 46.6562C24.5092 46.6562 24.6072 46.5512 24.6632 46.4077L25.0376 45.4489ZM27.4696 44.882H25.2546L26.3533 42.0021H26.3708L27.4696 44.882ZM33.5445 44.6196H34.6363C35.6791 44.6196 36.4665 43.8882 36.4665 42.9609C36.4665 42.0336 35.7596 41.2848 34.6118 41.2848H33.2156C32.9496 41.2848 32.8377 41.4422 32.8377 41.6452V46.3062C32.8377 46.5232 32.9741 46.6562 33.1911 46.6562C33.4081 46.6562 33.5445 46.5232 33.5445 46.3062V44.6196ZM33.5445 41.8516H34.5559C35.4377 41.8516 35.7596 42.436 35.7596 42.9574C35.7596 43.5628 35.2872 44.0492 34.5873 44.0492H33.5445V41.8516ZM41.2641 44.2242H44.2736V46.2572C44.2736 46.5197 44.41 46.6527 44.627 46.6527C44.844 46.6527 44.9804 46.5197 44.9804 46.2572V41.6347C44.9804 41.3722 44.844 41.2393 44.627 41.2393C44.41 41.2393 44.2736 41.3722 44.2736 41.6347V43.6538H41.2641V41.6347C41.2641 41.3722 41.1276 41.2393 40.9107 41.2393C40.6937 41.2393 40.5573 41.3722 40.5573 41.6347V46.2572C40.5573 46.5197 40.6937 46.6527 40.9107 46.6527C41.1276 46.6527 41.2641 46.5197 41.2641 46.2572V44.2242ZM52.707 46.3027V41.6417C52.707 41.4387 52.5951 41.2812 52.3291 41.2812H51.0203C50.121 41.2812 49.2707 41.8481 49.2707 42.716C49.2707 43.7937 49.9775 44.2032 50.8279 44.2277L51.1323 44.2346L49.3092 46.0963C49.2112 46.1943 49.1727 46.2747 49.1727 46.3937C49.1727 46.5372 49.3162 46.6492 49.4946 46.6492C49.6381 46.6492 49.7361 46.5827 49.8166 46.4987L52.0002 44.2696V46.2957C52.0002 46.5127 52.1366 46.6457 52.3536 46.6457C52.5705 46.6562 52.707 46.5197 52.707 46.3027ZM52.0002 43.7448H51.0378C50.2995 43.7448 49.9775 43.4543 49.9775 42.765C49.9775 42.2716 50.3939 41.8516 51.0518 41.8516H52.0002V43.7448ZM73.9481 44.0737L76.6147 46.5127C76.7581 46.6387 76.8561 46.6562 76.9611 46.6562C77.1536 46.6562 77.3075 46.5232 77.3075 46.3657C77.3075 46.2677 77.276 46.1943 77.1641 46.0963L74.6025 43.7937L76.9471 41.8271C77.0276 41.7606 77.0906 41.7012 77.0906 41.5297C77.0906 41.3582 76.9611 41.2463 76.7861 41.2463C76.6426 41.2463 76.5307 41.3442 76.4012 41.4562L73.9516 43.5418V41.5962C73.9516 41.3792 73.8152 41.2463 73.5982 41.2463C73.3812 41.2463 73.2448 41.3792 73.2448 41.5962V46.3062C73.2448 46.5232 73.3812 46.6562 73.5982 46.6562C73.8152 46.6562 73.9516 46.5232 73.9516 46.3062V44.0737H73.9481ZM81.9407 43.9477C81.9407 42.9294 82.4061 41.8096 83.6904 41.8096C84.9746 41.8096 85.44 42.9329 85.44 43.9477C85.44 44.9625 84.9746 46.0858 83.6904 46.0858C82.4061 46.0858 81.9407 44.966 81.9407 43.9477ZM81.1848 43.9477C81.1848 45.3299 82.0597 46.6562 83.6904 46.6562C85.3211 46.6562 86.1959 45.3334 86.1959 43.9477C86.1959 42.5655 85.3211 41.2393 83.6904 41.2393C82.0597 41.2393 81.1848 42.562 81.1848 43.9477ZM91.1685 44.2242H94.1779V46.2572C94.1779 46.5197 94.3144 46.6527 94.5314 46.6527C94.7483 46.6527 94.8848 46.5197 94.8848 46.2572V41.6347C94.8848 41.3722 94.7483 41.2393 94.5314 41.2393C94.3144 41.2393 94.1779 41.3722 94.1779 41.6347V43.6538H91.1685V41.6347C91.1685 41.3722 91.032 41.2393 90.8151 41.2393C90.5981 41.2393 90.4616 41.3722 90.4616 41.6347V46.2572C90.4616 46.5197 90.5981 46.6527 90.8151 46.6527C91.032 46.6527 91.1685 46.5197 91.1685 46.2572V44.2242ZM104.407 47.6045V46.3482C104.407 46.1453 104.263 46.0403 104.06 46.0403H103.658V41.6802C103.658 41.4177 103.521 41.2848 103.304 41.2848H100.774C100.557 41.2848 100.421 41.4177 100.421 41.6802V42.2051C100.421 43.7238 100.316 44.9415 99.658 46.0403H99.329C99.1295 46.0403 98.9826 46.1453 98.9826 46.3482V47.6045C98.9826 47.8669 99.119 47.9999 99.336 47.9999C99.553 47.9999 99.6894 47.8669 99.6894 47.6045V46.6107H103.696V47.6045C103.696 47.8669 103.833 47.9999 104.05 47.9999C104.27 47.9999 104.407 47.8669 104.407 47.6045ZM102.951 46.0403H100.452C101.03 44.994 101.159 43.7203 101.159 42.2051V41.8551H102.951V46.0403ZM112.966 46.3027V41.6277C112.966 41.3792 112.837 41.2393 112.644 41.2393C112.434 41.2393 112.34 41.3232 112.147 41.5822L109.264 45.4489H109.246V41.5892C109.246 41.3722 109.11 41.2393 108.893 41.2393C108.676 41.2393 108.539 41.3722 108.539 41.5892V46.2642C108.539 46.4952 108.658 46.6527 108.861 46.6527C109.071 46.6527 109.166 46.5722 109.358 46.3097L112.242 42.443H112.259V46.3027C112.259 46.5197 112.396 46.6527 112.613 46.6527C112.83 46.6562 112.966 46.5197 112.966 46.3027ZM118.415 46.3027C118.415 46.5197 118.551 46.6527 118.768 46.6527C118.985 46.6527 119.121 46.5197 119.121 46.3027V41.8971H120.189C120.388 41.8971 120.535 41.7991 120.535 41.5892C120.535 41.3792 120.392 41.2812 120.189 41.2812H117.347C117.148 41.2812 117.001 41.3792 117.001 41.5892C117.001 41.7991 117.144 41.8971 117.347 41.8971H118.415V46.3027ZM125.277 44.2556H126.827C127.026 44.2556 127.173 44.1577 127.173 43.9477C127.173 43.7378 127.03 43.6398 126.827 43.6398H125.277V41.8971H126.977C127.177 41.8971 127.324 41.7991 127.324 41.5892C127.324 41.3792 127.18 41.2812 126.977 41.2812H124.948C124.682 41.2812 124.57 41.4387 124.57 41.6417V46.2502C124.57 46.4532 124.682 46.6107 124.948 46.6107H126.977C127.177 46.6107 127.324 46.5127 127.324 46.3027C127.324 46.0928 127.18 45.9948 126.977 45.9948H125.277V44.2556ZM132.394 44.6196H133.486C134.529 44.6196 135.316 43.8882 135.316 42.9609C135.316 42.0336 134.61 41.2848 133.462 41.2848H132.066C131.8 41.2848 131.688 41.4422 131.688 41.6452V46.3062C131.688 46.5232 131.824 46.6562 132.041 46.6562C132.258 46.6562 132.394 46.5232 132.394 46.3062V44.6196ZM132.394 41.8516H133.406C134.288 41.8516 134.61 42.436 134.61 42.9574C134.61 43.5628 134.137 44.0492 133.437 44.0492H132.394V41.8516ZM139.946 43.9477C139.946 42.9294 140.467 41.8096 141.738 41.8096C142.62 41.8096 142.781 42.3345 143.102 42.3345C143.277 42.3345 143.393 42.1911 143.393 42.0196C143.393 41.7502 142.749 41.2428 141.738 41.2428C140.044 41.2428 139.194 42.5655 139.194 43.9512C139.194 45.3334 140.044 46.6597 141.699 46.6597C142.704 46.6597 143.512 46.2572 143.512 45.9178C143.512 45.7323 143.4 45.6099 143.232 45.6099C142.935 45.6099 142.557 46.0893 141.699 46.0893C140.481 46.0858 139.946 44.966 139.946 43.9477ZM148.428 44.0737L151.095 46.5127C151.238 46.6387 151.336 46.6562 151.441 46.6562C151.634 46.6562 151.788 46.5232 151.788 46.3657C151.788 46.2677 151.756 46.1943 151.644 46.0963L149.083 43.7937L151.427 41.8271C151.508 41.7606 151.571 41.7012 151.571 41.5297C151.571 41.3582 151.441 41.2463 151.266 41.2463C151.123 41.2463 151.011 41.3442 150.882 41.4562L148.432 43.5418V41.5962C148.432 41.3792 148.296 41.2463 148.079 41.2463C147.862 41.2463 147.725 41.3792 147.725 41.5962V46.3062C147.725 46.5232 147.862 46.6562 148.079 46.6562C148.296 46.6562 148.432 46.5232 148.432 46.3062V44.0737H148.428ZM156.551 45.4489H159.2L159.57 46.4077C159.626 46.5512 159.724 46.6562 159.917 46.6562C160.102 46.6562 160.253 46.5512 160.253 46.3797C160.253 46.2887 160.179 46.1173 160.155 46.0508L158.381 41.6452C158.283 41.4142 158.146 41.2428 157.873 41.2428C157.6 41.2428 157.464 41.4142 157.366 41.6452L155.592 46.0508C155.567 46.1173 155.494 46.2887 155.494 46.3797C155.494 46.5512 155.648 46.6562 155.83 46.6562C156.022 46.6562 156.12 46.5512 156.176 46.4077L156.551 45.4489ZM158.983 44.882H156.767L157.866 42.0021H157.884L158.983 44.882ZM167.591 46.3027V41.6417C167.591 41.4387 167.479 41.2812 167.213 41.2812H165.904C165.005 41.2812 164.155 41.8481 164.155 42.716C164.155 43.7937 164.861 44.2032 165.712 44.2277L166.016 44.2346L164.193 46.0963C164.095 46.1943 164.057 46.2747 164.057 46.3937C164.057 46.5372 164.2 46.6492 164.379 46.6492C164.522 46.6492 164.62 46.5827 164.701 46.4987L166.884 44.2696V46.2957C166.884 46.5127 167.021 46.6457 167.238 46.6457C167.455 46.6457 167.591 46.5197 167.591 46.3027ZM166.888 43.7448H165.925C165.187 43.7448 164.865 43.4543 164.865 42.765C164.865 42.2716 165.281 41.8516 165.939 41.8516H166.888V43.7448Z" fill="#EECC61"/>
<path fill-rule="evenodd" clip-rule="evenodd" d="M63.1484 42.668C63.7153 42.668 64.1737 43.1263 64.1737 43.6931C64.1737 44.2599 63.7153 44.7182 63.1484 44.7182C62.5815 44.7182 62.123 44.2599 62.123 43.6931C62.123 43.1263 62.5815 42.668 63.1484 42.668Z" fill="#EECC61"/>
</svg>
