<svg width="24" height="23" viewBox="0 0 24 23" fill="none" xmlns="http://www.w3.org/2000/svg">
    <path d="M23.9665 8.6935C23.8838 8.43892 23.6638 8.25339 23.399 8.21495L15.9589 7.13378L12.6315 0.39192C12.5131 0.151921 12.2686 0 12.001 0C11.7334 0 11.489 0.151921 11.3705 0.39192L8.04295 7.13378L0.602984 8.21495C0.338188 8.25339 0.118111 8.43892 0.0354234 8.69345C-0.0473107 8.94803 0.021689 9.22745 0.21336 9.41424L5.59684 14.6621L4.32616 22.0722C4.28088 22.336 4.38934 22.6025 4.60586 22.7599C4.72834 22.8488 4.87342 22.8941 5.0192 22.8941C5.13114 22.8941 5.24345 22.8675 5.34629 22.8134L12.001 19.3147L18.6554 22.8133C18.8923 22.9379 19.1793 22.9171 19.3958 22.7598C19.6124 22.6025 19.7209 22.3359 19.6756 22.0721L18.4045 14.6621L23.7886 9.4142C23.9802 9.22745 24.0493 8.94803 23.9665 8.6935Z"
          fill="#D4A203"/>
</svg>
